# xmcd CD database file
#
# Track frame offsets:
#	150
#	19410
#	37057
#	55263
#	72230
#	88902
#	103656
#	119130
#	137685
#	152535
#	169495
#	187634
#	211897
#	231896
#	251020
#	267262
#	284245
#	302898
#	318520
#	335178
#
# Disc length: 4695 seconds
#
# Revision: 5
# Processed by: cddbd v1.5.2PL0 Copyright (c) Steve Scherf et al.
# Submitted via: CDex 1.70beta2
#
DISCID=3b125514
DTITLE=Helene Fischer - Der ultimative Dance Mix
DYEAR=2011
DGENRE=Deutsch
TTITLE0=Und morgen früh küss' ich dich wach
TTITLE1=Beim Träumen ist alles erlaubt
TTITLE2=Ich will immer wieder ... dieses Fieber spür'n
TTITLE3=Mitten im Paradies
TTITLE4=Ich glaub' dir hundert Lügen
TTITLE5=Am Ende sind wir stark genug
TTITLE6=Das Karusell in meinem Bauch
TTITLE7=Tausend gute Gründe
TTITLE8=Fantasie hat Flügel
TTITLE9=Ewig ist manchmal zu lang
TTITLE10=Einmal berührt - für immer verführt
TTITLE11=Hundert Prozent
TTITLE12=Vergeben, vergessen und wieder vertrau'n
TTITLE13=Du fängst mich auf und lässt mich fliegen
TTITLE14=Von hier bis unendlich
TTITLE15=Lass' mich in dein Leben
TTITLE16=Von Null auf Sehnsucht
TTITLE17=Und ich vermiss' dich auch
TTITLE18=Mal ganz ehrlich
TTITLE19=Nicht von dieser Welt
EXTD=YEAR: 2011
EXTT0=
EXTT1=
EXTT2=
EXTT3=
EXTT4=
EXTT5=
EXTT6=
EXTT7=
EXTT8=
EXTT9=
EXTT10=
EXTT11=
EXTT12=
EXTT13=
EXTT14=
EXTT15=
EXTT16=
EXTT17=
EXTT18=
EXTT19=
PLAYORDER=
